<?xml version="1.0" encoding="UTF-8"?> <svg xmlns="http://www.w3.org/2000/svg" width="748" height="246" viewBox="0 0 748 246" fill="none"><path d="M0 4.06051H39.7286V240.924H0V4.06051Z" fill="#8962DB"></path><path d="M106.964 122.492C106.964 139.411 110.525 154.3 117.647 167.158C124.769 180.016 134.451 190.168 146.692 197.612C159.156 204.831 173.067 208.44 188.424 208.44C204.004 208.44 217.803 204.944 229.822 197.95C241.84 190.732 251.3 180.806 258.199 168.173C265.099 155.541 268.549 141.103 268.549 124.861C268.549 108.619 265.099 93.956 258.199 80.8721C251.3 67.7882 241.729 57.4113 229.488 49.7414C217.469 42.0715 203.225 38.2366 186.755 38.2366C171.397 38.2366 157.709 41.8459 145.691 49.0646C133.672 56.2834 124.213 66.3219 117.313 79.1802C110.413 91.8129 106.964 106.25 106.964 122.492ZM65.2318 122.492C65.2318 104.671 68.2365 88.3164 74.2459 73.4278C80.4778 58.5392 89.0467 45.6809 99.9526 34.8528C111.081 23.7992 123.99 15.2269 138.68 9.13616C153.592 3.04539 169.617 0 186.755 0C204.337 0 220.474 3.04539 235.163 9.13616C249.853 15.2269 262.651 23.7992 273.556 34.8528C284.462 45.6809 292.92 58.5392 298.929 73.4278C304.939 88.3164 307.943 104.671 307.943 122.492C307.943 140.088 304.939 156.443 298.929 171.557C292.92 186.671 284.462 199.755 273.556 210.809C262.873 221.862 250.187 230.547 235.497 236.864C220.808 242.955 204.56 246 186.755 246C169.394 246 153.258 242.955 138.346 236.864C123.434 230.547 110.525 221.862 99.6188 210.809C88.7129 199.755 80.2552 186.671 74.2459 171.557C68.2365 156.443 65.2318 140.088 65.2318 122.492ZM176.071 139.411H221.475L326.639 242.616H280.234L176.071 139.411Z" fill="#8962DB"></path><path d="M386.845 127.906H429.578L456.777 166.756L433.376 198.543L386.845 127.906ZM338.77 4.06051H378.165V240.924H338.77V4.06051ZM362.14 38.5749V4.06051H410.882C427.798 4.06051 442.487 7.1059 454.951 13.1967C467.638 19.2875 477.431 27.8597 484.33 38.9133C491.23 49.7414 494.68 62.5997 494.68 77.4883C494.68 92.3769 491.23 105.348 484.33 116.402C477.431 127.455 467.638 136.027 454.951 142.118C442.487 148.209 427.798 151.254 410.882 151.254H362.14V118.432H409.213C418.116 118.432 425.906 116.853 432.583 113.695C439.482 110.536 444.824 106.025 448.608 100.16C452.392 94.0688 454.283 86.8501 454.283 78.5034C454.283 69.9312 452.392 62.7125 448.608 56.8473C444.824 50.9821 439.482 46.4704 432.583 43.3122C425.906 40.154 418.116 38.5749 409.213 38.5749H362.14Z" fill="#8962DB"></path><path fill-rule="evenodd" clip-rule="evenodd" d="M748 241.048L592.806 5.89804L437.612 241.048H748ZM593.401 67.7155C581.866 76.3821 572.152 90.609 572.152 107.953C572.152 124.667 576.402 134.572 582.473 143.239C577.818 139.731 564.867 133.334 549.083 133.334C533.299 133.334 506.587 146.307 506.587 174.81C506.587 202.667 524.602 210.193 533.741 211.228C548.787 212.932 562.28 205.762 560.459 186.572C559.447 188.222 555.967 191.524 550.139 191.524C542.854 191.524 536.176 187.191 536.176 177.905C536.176 168.619 541.639 160.572 553.781 161.191C565.923 161.81 580.493 169.849 580.493 192.762C580.493 221.857 564.788 241.047 536.176 241.047H650.625C622.013 241.047 606.308 221.857 606.308 192.762C606.308 169.849 620.878 161.81 633.02 161.191C645.162 160.572 650.625 168.619 650.625 177.905C650.625 187.191 643.947 191.524 636.662 191.524C630.834 191.524 627.354 188.222 626.342 186.572C624.521 205.762 640.737 211.228 654.947 210.376C664.978 209.774 680.214 202.667 680.214 174.81C680.214 146.307 653.502 133.334 637.718 133.334C621.934 133.334 608.983 139.731 604.328 143.239C610.399 134.572 614.649 124.667 614.649 107.953C614.649 90.609 604.935 76.3821 593.401 67.7155Z" fill="#8962DB"></path></svg> 